<svg xmlns="http://www.w3.org/2000/svg" fill="none" stroke="currentColor" stroke-width="1.8" stroke-linecap="round" stroke-linejoin="round" viewBox="0 0 24 24">
<symbol id="document" viewBox="0 0 24 24"><path d="M6 3h9l4 4v14H6zM14 3v5h5M9 12h7M9 16h7"/></symbol>
<symbol id="plus" viewBox="0 0 24 24"><path d="M12 5v14M5 12h14"/></symbol>
<symbol id="search" viewBox="0 0 24 24"><circle cx="10" cy="10" r="6"/><path d="m15 15 5 5"/></symbol>
<symbol id="download" viewBox="0 0 24 24"><path d="M12 3v12m-5-5 5 5 5-5M4 17v4h16v-4"/></symbol>
<symbol id="upload" viewBox="0 0 24 24"><path d="M12 16V4m-5 5 5-5 5 5M4 17v4h16v-4"/></symbol>
<symbol id="share" viewBox="0 0 24 24"><path d="M14 4h6v6m0-6L9 15M10 5H4v15h15v-6"/></symbol>
<symbol id="list" viewBox="0 0 24 24"><path d="M9 6h12M9 12h12M9 18h12M3 6h1M3 12h1M3 18h1"/></symbol>
<symbol id="quote" viewBox="0 0 24 24"><path d="M4 6h6v7H4zm0 7v5l6-5M14 6h6v7h-6zm0 7v5l6-5"/></symbol>
<symbol id="photo" viewBox="0 0 24 24"><path d="M3 3h18v18H3zm0 14 6-6 5 5 3-3 4 4"/><circle cx="16" cy="8" r="2"/></symbol>
<symbol id="undo" viewBox="0 0 24 24"><path d="m8 4-5 5 5 5M3 9h11a6 6 0 0 1 0 12"/></symbol>
<symbol id="close" viewBox="0 0 24 24"><path d="m6 6 12 12M6 18 18 6"/></symbol>
<symbol id="focus" viewBox="0 0 24 24"><path d="M8 3H3v5m13-5h5v5M3 16v5h5m13-5v5h-5"/></symbol>
<symbol id="folder" viewBox="0 0 24 24"><path d="M3 5h7l2 3h9v12H3z"/></symbol>
<symbol id="eye" viewBox="0 0 24 24"><path d="M2 12s4-7 10-7 10 7 10 7-4 7-10 7S2 12 2 12z"/><circle cx="12" cy="12" r="3"/></symbol>
<symbol id="trash" viewBox="0 0 24 24"><path d="M3 6h18M9 6V3h6v3M5 6l1 15h12l1-15M10 10v7m4-7v7"/></symbol>
</svg>
